# xmcd CD database file generated by OrangeCD 5.2
#
# Track frame offsets:
#	150
#	38025
#	60025
#	89670
#	110048
#	151178
#	171318
#	209593
#	221973
#	252515
#	263598
#	277055
#
# Disc length: 4019 seconds
#
# Revision: 0
# Processed by: cddbd v1.5.1PL0 Copyright (c) Steve Scherf et al.
# Submitted via: OrangeCD 5.2
#
DISCID=b40fb10c
DTITLE=Lubos Andrst - Vyber z alb Capricornus a Plus Minus Blues
DYEAR=1995
DGENRE=Blues
TTITLE0=Vsechny dvere dokoran
TTITLE1=Ikebana
TTITLE2=Letej pomalu
TTITLE3=Cesta domu
TTITLE4=Listopad
TTITLE5=Na konci leta
TTITLE6=Capricornus
TTITLE7=Vzpominky
TTITLE8=Kratke spojeni
TTITLE9=Nadeje
TTITLE10=Doteky
TTITLE11=Plus-minus blues
EXTD=
EXTT0=
EXTT1=
EXTT2=
EXTT3=
EXTT4=
EXTT5=
EXTT6=
EXTT7=
EXTT8=
EXTT9=
EXTT10=
EXTT11=
PLAYORDER=
